<svg width="877" height="16" viewBox="0 0 877 16" fill="none" xmlns="http://www.w3.org/2000/svg">
<rect width="877" height="16" fill="url(#paint0_linear_2333_138)"/>
<mask id="mask0_2333_138" style="mask-type:alpha" maskUnits="userSpaceOnUse" x="29" y="0" width="21" height="16">
<rect x="29" width="21" height="16" fill="#F0ECDA"/>
</mask>
<g mask="url(#mask0_2333_138)">
<rect x="47" y="-5.78601" width="5" height="31" transform="rotate(40 47 -5.78601)" fill="#FFFBE8"/>
<rect x="27" y="-2.78601" width="5" height="31" transform="rotate(-40 27 -2.78601)" fill="#FFFBE8"/>
</g>
<mask id="mask1_2333_138" style="mask-type:alpha" maskUnits="userSpaceOnUse" x="54" y="0" width="21" height="16">
<rect x="54" width="21" height="16" fill="#F0ECDA"/>
</mask>
<g mask="url(#mask1_2333_138)">
<rect x="72" y="-5.78601" width="5" height="31" transform="rotate(40 72 -5.78601)" fill="#FFFBE8"/>
<rect x="52" y="-2.78601" width="5" height="31" transform="rotate(-40 52 -2.78601)" fill="#FFFBE8"/>
</g>
<mask id="mask2_2333_138" style="mask-type:alpha" maskUnits="userSpaceOnUse" x="79" y="0" width="21" height="16">
<rect x="79" width="21" height="16" fill="#F0ECDA"/>
</mask>
<g mask="url(#mask2_2333_138)">
<rect x="97" y="-5.78601" width="5" height="31" transform="rotate(40 97 -5.78601)" fill="#FFFBE8"/>
<rect x="77" y="-2.78601" width="5" height="31" transform="rotate(-40 77 -2.78601)" fill="#FFFBE8"/>
</g>
<mask id="mask3_2333_138" style="mask-type:alpha" maskUnits="userSpaceOnUse" x="104" y="0" width="21" height="16">
<rect x="104" width="21" height="16" fill="#F0ECDA"/>
</mask>
<g mask="url(#mask3_2333_138)">
<rect x="122" y="-5.78601" width="5" height="31" transform="rotate(40 122 -5.78601)" fill="#900000"/>
<rect x="102" y="-2.78601" width="5" height="31" transform="rotate(-40 102 -2.78601)" fill="#900000"/>
</g>
<mask id="mask4_2333_138" style="mask-type:alpha" maskUnits="userSpaceOnUse" x="0" y="0" width="27" height="16">
<rect width="27" height="16" fill="#F0ECDA"/>
</mask>
<g mask="url(#mask4_2333_138)">
<rect x="22" y="-8" width="3" height="31" transform="rotate(40 22 -8)" fill="#FFFBE8"/>
<rect x="24.335" y="-5.85107" width="3" height="31" transform="rotate(34 24.335 -5.85107)" fill="#FFFBE8"/>
<rect x="5" y="-4.01843" width="3" height="31" transform="rotate(-40 5 -4.01843)" fill="#FFFBE8"/>
<rect x="3" y="-1.17346" width="3" height="31" transform="rotate(-34 3 -1.17346)" fill="#FFFBE8"/>
</g>
<mask id="mask5_2333_138" style="mask-type:alpha" maskUnits="userSpaceOnUse" x="775" y="0" width="21" height="16">
<rect x="775" width="21" height="16" fill="#F0ECDA"/>
</mask>
<g mask="url(#mask5_2333_138)">
<rect x="793" y="-5.78601" width="5" height="31" transform="rotate(40 793 -5.78601)" fill="#FFFBE8"/>
<rect x="773" y="-2.78601" width="5" height="31" transform="rotate(-40 773 -2.78601)" fill="#FFFBE8"/>
</g>
<mask id="mask6_2333_138" style="mask-type:alpha" maskUnits="userSpaceOnUse" x="800" y="0" width="21" height="16">
<rect x="800" width="21" height="16" fill="#F0ECDA"/>
</mask>
<g mask="url(#mask6_2333_138)">
<rect x="818" y="-5.78601" width="5" height="31" transform="rotate(40 818 -5.78601)" fill="#FFFBE8"/>
<rect x="798" y="-2.78601" width="5" height="31" transform="rotate(-40 798 -2.78601)" fill="#FFFBE8"/>
</g>
<mask id="mask7_2333_138" style="mask-type:alpha" maskUnits="userSpaceOnUse" x="825" y="0" width="21" height="16">
<rect x="825" width="21" height="16" fill="#F0ECDA"/>
</mask>
<g mask="url(#mask7_2333_138)">
<rect x="843" y="-5.78601" width="5" height="31" transform="rotate(40 843 -5.78601)" fill="#FFFBE8"/>
<rect x="823" y="-2.78601" width="5" height="31" transform="rotate(-40 823 -2.78601)" fill="#FFFBE8"/>
</g>
<mask id="mask8_2333_138" style="mask-type:alpha" maskUnits="userSpaceOnUse" x="750" y="0" width="21" height="16">
<rect x="750" width="21" height="16" fill="#F0ECDA"/>
</mask>
<g mask="url(#mask8_2333_138)">
<rect x="768" y="-5.78601" width="5" height="31" transform="rotate(40 768 -5.78601)" fill="#900000"/>
<rect x="748" y="-2.78601" width="5" height="31" transform="rotate(-40 748 -2.78601)" fill="#900000"/>
</g>
<mask id="mask9_2333_138" style="mask-type:alpha" maskUnits="userSpaceOnUse" x="850" y="0" width="27" height="16">
<rect x="850" width="27" height="16" fill="#F0ECDA"/>
</mask>
<g mask="url(#mask9_2333_138)">
<rect x="872" y="-8" width="3" height="31" transform="rotate(40 872 -8)" fill="#FFFBE8"/>
<rect x="874.335" y="-5.85107" width="3" height="31" transform="rotate(34 874.335 -5.85107)" fill="#FFFBE8"/>
<rect x="855" y="-4.01843" width="3" height="31" transform="rotate(-40 855 -4.01843)" fill="#FFFBE8"/>
<rect x="853" y="-1.17346" width="3" height="31" transform="rotate(-34 853 -1.17346)" fill="#FFFBE8"/>
</g>
<mask id="mask10_2333_138" style="mask-type:alpha" maskUnits="userSpaceOnUse" x="228" y="0" width="21" height="16">
<rect x="228" width="21" height="16" fill="#F0ECDA"/>
</mask>
<g mask="url(#mask10_2333_138)">
<rect x="246" y="-5.78601" width="5" height="31" transform="rotate(40 246 -5.78601)" fill="#FFFBE8"/>
<rect x="226" y="-2.78601" width="5" height="31" transform="rotate(-40 226 -2.78601)" fill="#FFFBE8"/>
</g>
<mask id="mask11_2333_138" style="mask-type:alpha" maskUnits="userSpaceOnUse" x="203" y="0" width="21" height="16">
<rect x="203" width="21" height="16" fill="#F0ECDA"/>
</mask>
<g mask="url(#mask11_2333_138)">
<rect x="221" y="-5.78601" width="5" height="31" transform="rotate(40 221 -5.78601)" fill="#900000"/>
<rect x="201" y="-2.78601" width="5" height="31" transform="rotate(-40 201 -2.78601)" fill="#900000"/>
</g>
<mask id="mask12_2333_138" style="mask-type:alpha" maskUnits="userSpaceOnUse" x="253" y="0" width="21" height="16">
<rect x="253" width="21" height="16" fill="#F0ECDA"/>
</mask>
<g mask="url(#mask12_2333_138)">
<rect x="271" y="-5.78601" width="5" height="31" transform="rotate(40 271 -5.78601)" fill="#900000"/>
<rect x="251" y="-2.78601" width="5" height="31" transform="rotate(-40 251 -2.78601)" fill="#900000"/>
</g>
<mask id="mask13_2333_138" style="mask-type:alpha" maskUnits="userSpaceOnUse" x="626" y="0" width="21" height="16">
<rect x="626" width="21" height="16" fill="#F0ECDA"/>
</mask>
<g mask="url(#mask13_2333_138)">
<rect x="644" y="-5.78601" width="5" height="31" transform="rotate(40 644 -5.78601)" fill="#FFFBE8"/>
<rect x="624" y="-2.78601" width="5" height="31" transform="rotate(-40 624 -2.78601)" fill="#FFFBE8"/>
</g>
<mask id="mask14_2333_138" style="mask-type:alpha" maskUnits="userSpaceOnUse" x="601" y="0" width="21" height="16">
<rect x="601" width="21" height="16" fill="#F0ECDA"/>
</mask>
<g mask="url(#mask14_2333_138)">
<rect x="619" y="-5.78601" width="5" height="31" transform="rotate(40 619 -5.78601)" fill="#900000"/>
<rect x="599" y="-2.78601" width="5" height="31" transform="rotate(-40 599 -2.78601)" fill="#900000"/>
</g>
<mask id="mask15_2333_138" style="mask-type:alpha" maskUnits="userSpaceOnUse" x="651" y="0" width="21" height="16">
<rect x="651" width="21" height="16" fill="#F0ECDA"/>
</mask>
<g mask="url(#mask15_2333_138)">
<rect x="669" y="-5.78601" width="5" height="31" transform="rotate(40 669 -5.78601)" fill="#900000"/>
<rect x="649" y="-2.78601" width="5" height="31" transform="rotate(-40 649 -2.78601)" fill="#900000"/>
</g>
<mask id="mask16_2333_138" style="mask-type:alpha" maskUnits="userSpaceOnUse" x="352" y="0" width="21" height="16">
<rect x="352" width="21" height="16" fill="#F0ECDA"/>
</mask>
<g mask="url(#mask16_2333_138)">
<rect x="370" y="-5.78601" width="5" height="31" transform="rotate(40 370 -5.78601)" fill="#900000"/>
<rect x="350" y="-2.78601" width="5" height="31" transform="rotate(-40 350 -2.78601)" fill="#900000"/>
</g>
<mask id="mask17_2333_138" style="mask-type:alpha" maskUnits="userSpaceOnUse" x="377" y="0" width="21" height="16">
<rect x="377" width="21" height="16" fill="#F0ECDA"/>
</mask>
<g mask="url(#mask17_2333_138)">
<rect x="395" y="-5.78601" width="5" height="31" transform="rotate(40 395 -5.78601)" fill="#900000"/>
<rect x="375" y="-2.78601" width="5" height="31" transform="rotate(-40 375 -2.78601)" fill="#900000"/>
</g>
<mask id="mask18_2333_138" style="mask-type:alpha" maskUnits="userSpaceOnUse" x="402" y="0" width="21" height="16">
<rect x="402" width="21" height="16" fill="#F0ECDA"/>
</mask>
<g mask="url(#mask18_2333_138)">
<rect x="420" y="-5.78601" width="5" height="31" transform="rotate(40 420 -5.78601)" fill="#900000"/>
<rect x="400" y="-2.78601" width="5" height="31" transform="rotate(-40 400 -2.78601)" fill="#900000"/>
</g>
<mask id="mask19_2333_138" style="mask-type:alpha" maskUnits="userSpaceOnUse" x="427" y="0" width="21" height="16">
<rect x="427" width="21" height="16" fill="#F0ECDA"/>
</mask>
<g mask="url(#mask19_2333_138)">
<rect x="445" y="-5.78601" width="5" height="31" transform="rotate(40 445 -5.78601)" fill="#900000"/>
<rect x="425" y="-2.78601" width="5" height="31" transform="rotate(-40 425 -2.78601)" fill="#900000"/>
</g>
<mask id="mask20_2333_138" style="mask-type:alpha" maskUnits="userSpaceOnUse" x="452" y="0" width="21" height="16">
<rect x="452" width="21" height="16" fill="#F0ECDA"/>
</mask>
<g mask="url(#mask20_2333_138)">
<rect x="470" y="-5.78601" width="5" height="31" transform="rotate(40 470 -5.78601)" fill="#900000"/>
<rect x="450" y="-2.78601" width="5" height="31" transform="rotate(-40 450 -2.78601)" fill="#900000"/>
</g>
<mask id="mask21_2333_138" style="mask-type:alpha" maskUnits="userSpaceOnUse" x="477" y="0" width="21" height="16">
<rect x="477" width="21" height="16" fill="#F0ECDA"/>
</mask>
<g mask="url(#mask21_2333_138)">
<rect x="495" y="-5.78601" width="5" height="31" transform="rotate(40 495 -5.78601)" fill="#900000"/>
<rect x="475" y="-2.78601" width="5" height="31" transform="rotate(-40 475 -2.78601)" fill="#900000"/>
</g>
<mask id="mask22_2333_138" style="mask-type:alpha" maskUnits="userSpaceOnUse" x="502" y="0" width="21" height="16">
<rect x="502" width="21" height="16" fill="#F0ECDA"/>
</mask>
<g mask="url(#mask22_2333_138)">
<rect x="520" y="-5.78601" width="5" height="31" transform="rotate(40 520 -5.78601)" fill="#900000"/>
<rect x="500" y="-2.78601" width="5" height="31" transform="rotate(-40 500 -2.78601)" fill="#900000"/>
</g>
<defs>
<linearGradient id="paint0_linear_2333_138" x1="438.5" y1="0" x2="438.5" y2="16" gradientUnits="userSpaceOnUse">
<stop stop-color="#6E1610"/>
<stop offset="1"/>
</linearGradient>
</defs>
</svg>
