<svg width="1043" height="581" viewBox="0 0 1043 581" fill="none" xmlns="http://www.w3.org/2000/svg">
<rect y="565" width="47" height="16" fill="url(#paint0_linear_2335_901)"/>
<rect x="996" y="565" width="47" height="16" fill="url(#paint1_linear_2335_901)"/>
<rect x="320" y="298" width="47" height="16" fill="url(#paint2_linear_2335_901)"/>
<rect x="498" y="161" width="47" height="16" fill="url(#paint3_linear_2335_901)"/>
<rect x="677" y="298" width="47" height="16" fill="url(#paint4_linear_2335_901)"/>
<rect x="160" y="432" width="47" height="16" fill="url(#paint5_linear_2335_901)"/>
<rect x="836" y="432" width="47" height="16" fill="url(#paint6_linear_2335_901)"/>
<rect y="543" width="47" height="16" fill="url(#paint7_linear_2335_901)"/>
<rect x="996" y="543" width="47" height="16" fill="url(#paint8_linear_2335_901)"/>
<rect x="320" y="276" width="47" height="16" fill="url(#paint9_linear_2335_901)"/>
<rect x="498" y="139" width="47" height="16" fill="url(#paint10_linear_2335_901)"/>
<rect x="677" y="276" width="47" height="16" fill="url(#paint11_linear_2335_901)"/>
<rect x="160" y="410" width="47" height="16" fill="url(#paint12_linear_2335_901)"/>
<rect x="836" y="410" width="47" height="16" fill="url(#paint13_linear_2335_901)"/>
<rect y="521" width="47" height="16" fill="url(#paint14_linear_2335_901)"/>
<rect x="996" y="521" width="47" height="16" fill="url(#paint15_linear_2335_901)"/>
<rect x="320" y="254" width="47" height="16" fill="url(#paint16_linear_2335_901)"/>
<rect x="498" y="117" width="47" height="16" fill="url(#paint17_linear_2335_901)"/>
<rect x="677" y="254" width="47" height="16" fill="url(#paint18_linear_2335_901)"/>
<rect x="160" y="388" width="47" height="16" fill="url(#paint19_linear_2335_901)"/>
<rect x="836" y="388" width="47" height="16" fill="url(#paint20_linear_2335_901)"/>
<rect y="499" width="47" height="16" fill="url(#paint21_linear_2335_901)"/>
<rect x="996" y="499" width="47" height="16" fill="url(#paint22_linear_2335_901)"/>
<rect x="320" y="232" width="47" height="16" fill="url(#paint23_linear_2335_901)"/>
<rect x="498" y="95" width="47" height="16" fill="url(#paint24_linear_2335_901)"/>
<rect x="677" y="232" width="47" height="16" fill="url(#paint25_linear_2335_901)"/>
<rect x="160" y="366" width="47" height="16" fill="url(#paint26_linear_2335_901)"/>
<rect x="836" y="366" width="47" height="16" fill="url(#paint27_linear_2335_901)"/>
<rect y="477" width="47" height="16" fill="url(#paint28_linear_2335_901)"/>
<rect x="996" y="477" width="47" height="16" fill="url(#paint29_linear_2335_901)"/>
<rect x="320" y="210" width="47" height="16" fill="url(#paint30_linear_2335_901)"/>
<rect x="498" y="73" width="47" height="16" fill="url(#paint31_linear_2335_901)"/>
<rect x="677" y="210" width="47" height="16" fill="url(#paint32_linear_2335_901)"/>
<rect x="160" y="344" width="47" height="16" fill="url(#paint33_linear_2335_901)"/>
<rect x="836" y="344" width="47" height="16" fill="url(#paint34_linear_2335_901)"/>
<rect y="455" width="207" height="16" fill="url(#paint35_linear_2335_901)"/>
<rect x="836" y="455" width="207" height="16" fill="url(#paint36_linear_2335_901)"/>
<rect x="160" y="321" width="207" height="16" fill="url(#paint37_linear_2335_901)"/>
<rect x="677" y="321" width="207" height="16" fill="url(#paint38_linear_2335_901)"/>
<rect x="320" y="186" width="404" height="16" fill="url(#paint39_linear_2335_901)"/>
<rect y="432" width="150" height="16" fill="#900000"/>
<rect y="384" width="100" height="16" fill="#900000"/>
<rect width="97" height="16" transform="matrix(-1 0 0 1 1042 384)" fill="#900000"/>
<rect x="892" y="433" width="150" height="16" fill="#900000"/>
<rect x="134" y="298" width="176" height="16" fill="#900000"/>
<rect x="84" y="250" width="176" height="16" fill="#900000"/>
<rect width="176" height="16" transform="matrix(-1 0 0 1 961 250)" fill="#900000"/>
<rect x="732" y="299" width="176" height="16" fill="#900000"/>
<rect x="294" y="160" width="194" height="16" fill="#900000"/>
<rect x="244" y="112" width="194" height="16" fill="#900000"/>
<rect width="194" height="16" transform="matrix(-1 0 0 1 801 112)" fill="#900000"/>
<rect x="554" y="161" width="194" height="16" fill="#900000"/>
<rect x="472" y="49" width="98" height="16" fill="#900000"/>
<rect x="422" width="201" height="16" fill="#900000"/>
<rect x="134" y="432" width="134" height="16" transform="rotate(-90 134 432)" fill="#900000"/>
<rect x="84" y="384" width="134" height="16" transform="rotate(-90 84 384)" fill="#900000"/>
<rect width="134" height="16" transform="matrix(4.37114e-08 -1 -1 -4.37114e-08 961 384)" fill="#900000"/>
<rect x="892" y="441" width="134" height="16" transform="rotate(-90 892 441)" fill="#900000"/>
<rect x="294" y="314" width="154" height="16" transform="rotate(-90 294 314)" fill="#900000"/>
<rect x="244" y="266" width="154" height="16" transform="rotate(-90 244 266)" fill="#900000"/>
<rect width="154" height="16" transform="matrix(4.37114e-08 -1 -1 -4.37114e-08 801 266)" fill="#900000"/>
<rect x="732" y="315" width="154" height="16" transform="rotate(-90 732 315)" fill="#900000"/>
<rect x="472" y="176" width="127" height="16" transform="rotate(-90 472 176)" fill="#900000"/>
<rect x="422" y="128" width="127" height="16" transform="rotate(-90 422 128)" fill="#900000"/>
<rect width="127" height="16" transform="matrix(4.37114e-08 -1 -1 -4.37114e-08 623 128)" fill="#900000"/>
<rect x="554" y="176" width="127" height="16" transform="rotate(-90 554 176)" fill="#900000"/>
<rect y="409" width="126" height="16" fill="#FFFBE8"/>
<rect x="918" y="410" width="125" height="16" fill="#FFFBE8"/>
<rect x="110" y="275" width="176" height="16" fill="#FFFBE8"/>
<rect x="758" y="276" width="176" height="16" fill="#FFFBE8"/>
<rect x="270" y="137" width="194" height="16" fill="#FFFBE8"/>
<rect x="580" y="138" width="194" height="16" fill="#FFFBE8"/>
<rect x="464" y="26" width="116" height="16" fill="#FFFBE8"/>
<rect x="110" y="409" width="134" height="16" transform="rotate(-90 110 409)" fill="#FFFBE8"/>
<rect x="918" y="418" width="134" height="16" transform="rotate(-90 918 418)" fill="#FFFBE8"/>
<rect x="270" y="291" width="154" height="16" transform="rotate(-90 270 291)" fill="#FFFBE8"/>
<rect x="758" y="292" width="154" height="16" transform="rotate(-90 758 292)" fill="#FFFBE8"/>
<rect x="448" y="153" width="127" height="16" transform="rotate(-90 448 153)" fill="#FFFBE8"/>
<rect x="580" y="153" width="127" height="16" transform="rotate(-90 580 153)" fill="#FFFBE8"/>
<defs>
<linearGradient id="paint0_linear_2335_901" x1="23.5" y1="565" x2="23.5" y2="581" gradientUnits="userSpaceOnUse">
<stop stop-color="#6E1610"/>
<stop offset="1"/>
</linearGradient>
<linearGradient id="paint1_linear_2335_901" x1="1019.5" y1="565" x2="1019.5" y2="581" gradientUnits="userSpaceOnUse">
<stop stop-color="#6E1610"/>
<stop offset="1"/>
</linearGradient>
<linearGradient id="paint2_linear_2335_901" x1="343.5" y1="298" x2="343.5" y2="314" gradientUnits="userSpaceOnUse">
<stop stop-color="#6E1610"/>
<stop offset="1"/>
</linearGradient>
<linearGradient id="paint3_linear_2335_901" x1="521.5" y1="161" x2="521.5" y2="177" gradientUnits="userSpaceOnUse">
<stop stop-color="#6E1610"/>
<stop offset="1"/>
</linearGradient>
<linearGradient id="paint4_linear_2335_901" x1="700.5" y1="298" x2="700.5" y2="314" gradientUnits="userSpaceOnUse">
<stop stop-color="#6E1610"/>
<stop offset="1"/>
</linearGradient>
<linearGradient id="paint5_linear_2335_901" x1="183.5" y1="432" x2="183.5" y2="448" gradientUnits="userSpaceOnUse">
<stop stop-color="#6E1610"/>
<stop offset="1"/>
</linearGradient>
<linearGradient id="paint6_linear_2335_901" x1="859.5" y1="432" x2="859.5" y2="448" gradientUnits="userSpaceOnUse">
<stop stop-color="#6E1610"/>
<stop offset="1"/>
</linearGradient>
<linearGradient id="paint7_linear_2335_901" x1="23.5" y1="543" x2="23.5" y2="559" gradientUnits="userSpaceOnUse">
<stop stop-color="#6E1610"/>
<stop offset="1"/>
</linearGradient>
<linearGradient id="paint8_linear_2335_901" x1="1019.5" y1="543" x2="1019.5" y2="559" gradientUnits="userSpaceOnUse">
<stop stop-color="#6E1610"/>
<stop offset="1"/>
</linearGradient>
<linearGradient id="paint9_linear_2335_901" x1="343.5" y1="276" x2="343.5" y2="292" gradientUnits="userSpaceOnUse">
<stop stop-color="#6E1610"/>
<stop offset="1"/>
</linearGradient>
<linearGradient id="paint10_linear_2335_901" x1="521.5" y1="139" x2="521.5" y2="155" gradientUnits="userSpaceOnUse">
<stop stop-color="#6E1610"/>
<stop offset="1"/>
</linearGradient>
<linearGradient id="paint11_linear_2335_901" x1="700.5" y1="276" x2="700.5" y2="292" gradientUnits="userSpaceOnUse">
<stop stop-color="#6E1610"/>
<stop offset="1"/>
</linearGradient>
<linearGradient id="paint12_linear_2335_901" x1="183.5" y1="410" x2="183.5" y2="426" gradientUnits="userSpaceOnUse">
<stop stop-color="#6E1610"/>
<stop offset="1"/>
</linearGradient>
<linearGradient id="paint13_linear_2335_901" x1="859.5" y1="410" x2="859.5" y2="426" gradientUnits="userSpaceOnUse">
<stop stop-color="#6E1610"/>
<stop offset="1"/>
</linearGradient>
<linearGradient id="paint14_linear_2335_901" x1="23.5" y1="521" x2="23.5" y2="537" gradientUnits="userSpaceOnUse">
<stop stop-color="#6E1610"/>
<stop offset="1"/>
</linearGradient>
<linearGradient id="paint15_linear_2335_901" x1="1019.5" y1="521" x2="1019.5" y2="537" gradientUnits="userSpaceOnUse">
<stop stop-color="#6E1610"/>
<stop offset="1"/>
</linearGradient>
<linearGradient id="paint16_linear_2335_901" x1="343.5" y1="254" x2="343.5" y2="270" gradientUnits="userSpaceOnUse">
<stop stop-color="#6E1610"/>
<stop offset="1"/>
</linearGradient>
<linearGradient id="paint17_linear_2335_901" x1="521.5" y1="117" x2="521.5" y2="133" gradientUnits="userSpaceOnUse">
<stop stop-color="#6E1610"/>
<stop offset="1"/>
</linearGradient>
<linearGradient id="paint18_linear_2335_901" x1="700.5" y1="254" x2="700.5" y2="270" gradientUnits="userSpaceOnUse">
<stop stop-color="#6E1610"/>
<stop offset="1"/>
</linearGradient>
<linearGradient id="paint19_linear_2335_901" x1="183.5" y1="388" x2="183.5" y2="404" gradientUnits="userSpaceOnUse">
<stop stop-color="#6E1610"/>
<stop offset="1"/>
</linearGradient>
<linearGradient id="paint20_linear_2335_901" x1="859.5" y1="388" x2="859.5" y2="404" gradientUnits="userSpaceOnUse">
<stop stop-color="#6E1610"/>
<stop offset="1"/>
</linearGradient>
<linearGradient id="paint21_linear_2335_901" x1="23.5" y1="499" x2="23.5" y2="515" gradientUnits="userSpaceOnUse">
<stop stop-color="#6E1610"/>
<stop offset="1"/>
</linearGradient>
<linearGradient id="paint22_linear_2335_901" x1="1019.5" y1="499" x2="1019.5" y2="515" gradientUnits="userSpaceOnUse">
<stop stop-color="#6E1610"/>
<stop offset="1"/>
</linearGradient>
<linearGradient id="paint23_linear_2335_901" x1="343.5" y1="232" x2="343.5" y2="248" gradientUnits="userSpaceOnUse">
<stop stop-color="#6E1610"/>
<stop offset="1"/>
</linearGradient>
<linearGradient id="paint24_linear_2335_901" x1="521.5" y1="95" x2="521.5" y2="111" gradientUnits="userSpaceOnUse">
<stop stop-color="#6E1610"/>
<stop offset="1"/>
</linearGradient>
<linearGradient id="paint25_linear_2335_901" x1="700.5" y1="232" x2="700.5" y2="248" gradientUnits="userSpaceOnUse">
<stop stop-color="#6E1610"/>
<stop offset="1"/>
</linearGradient>
<linearGradient id="paint26_linear_2335_901" x1="183.5" y1="366" x2="183.5" y2="382" gradientUnits="userSpaceOnUse">
<stop stop-color="#6E1610"/>
<stop offset="1"/>
</linearGradient>
<linearGradient id="paint27_linear_2335_901" x1="859.5" y1="366" x2="859.5" y2="382" gradientUnits="userSpaceOnUse">
<stop stop-color="#6E1610"/>
<stop offset="1"/>
</linearGradient>
<linearGradient id="paint28_linear_2335_901" x1="23.5" y1="477" x2="23.5" y2="493" gradientUnits="userSpaceOnUse">
<stop stop-color="#6E1610"/>
<stop offset="1"/>
</linearGradient>
<linearGradient id="paint29_linear_2335_901" x1="1019.5" y1="477" x2="1019.5" y2="493" gradientUnits="userSpaceOnUse">
<stop stop-color="#6E1610"/>
<stop offset="1"/>
</linearGradient>
<linearGradient id="paint30_linear_2335_901" x1="343.5" y1="210" x2="343.5" y2="226" gradientUnits="userSpaceOnUse">
<stop stop-color="#6E1610"/>
<stop offset="1"/>
</linearGradient>
<linearGradient id="paint31_linear_2335_901" x1="521.5" y1="73" x2="521.5" y2="89" gradientUnits="userSpaceOnUse">
<stop stop-color="#6E1610"/>
<stop offset="1"/>
</linearGradient>
<linearGradient id="paint32_linear_2335_901" x1="700.5" y1="210" x2="700.5" y2="226" gradientUnits="userSpaceOnUse">
<stop stop-color="#6E1610"/>
<stop offset="1"/>
</linearGradient>
<linearGradient id="paint33_linear_2335_901" x1="183.5" y1="344" x2="183.5" y2="360" gradientUnits="userSpaceOnUse">
<stop stop-color="#6E1610"/>
<stop offset="1"/>
</linearGradient>
<linearGradient id="paint34_linear_2335_901" x1="859.5" y1="344" x2="859.5" y2="360" gradientUnits="userSpaceOnUse">
<stop stop-color="#6E1610"/>
<stop offset="1"/>
</linearGradient>
<linearGradient id="paint35_linear_2335_901" x1="103.5" y1="455" x2="103.5" y2="471" gradientUnits="userSpaceOnUse">
<stop stop-color="#6E1610"/>
<stop offset="1"/>
</linearGradient>
<linearGradient id="paint36_linear_2335_901" x1="939.5" y1="455" x2="939.5" y2="471" gradientUnits="userSpaceOnUse">
<stop stop-color="#6E1610"/>
<stop offset="1"/>
</linearGradient>
<linearGradient id="paint37_linear_2335_901" x1="263.5" y1="321" x2="263.5" y2="337" gradientUnits="userSpaceOnUse">
<stop stop-color="#6E1610"/>
<stop offset="1"/>
</linearGradient>
<linearGradient id="paint38_linear_2335_901" x1="780.5" y1="321" x2="780.5" y2="337" gradientUnits="userSpaceOnUse">
<stop stop-color="#6E1610"/>
<stop offset="1"/>
</linearGradient>
<linearGradient id="paint39_linear_2335_901" x1="522" y1="186" x2="522" y2="202" gradientUnits="userSpaceOnUse">
<stop stop-color="#6E1610"/>
<stop offset="1"/>
</linearGradient>
</defs>
</svg>
